:SAMPLES-PER-SECOND 30
:FULLY-SPECIFIED
:DEGREES
505
root  10.1776 33.5927 55.5833 12.5939 28.9606 7.49747
LeftUpLeg  0.359322 5.90286 6.48669
LeftLeg  40.8185 14.142 10.4775
LeftFoot  35.3001 -3.34758 10.4946
LeftToes  -49.9017 1.85109e-006 5.31342e-008
Spine  2.76255 0.219151 5.1098
Spine1  5.42294 0.291372 9.13161
RightShoulder  0.0822652 1.61723 9.52009
RightArm  -35.3905 -14.2277 57.0223
RightForeArm  32.4701 37.6431 7.81677
RightHand  2.83481 -13.2786 -23.6207
LeftShoulder1  0.00914882 5.92214 -5.17066
LeftArm  -53.9666 31.5386 -28.2463
LeftForeArm  56.7343 -68.6993 -27.0325
LeftHand  -1.09762 -13.4013 8.95697
HEad  -25.9813 -0.754198 0.00698188
RightUpLeg  -35.0061 0.953225 -23.3938
RightLeg  25.045 6.82536 2.65789
RightFoot  19.8086 -0.356783 2.42062
RightToes  -53.9742 -0.338591 -0.379736
506
root  10.9345 33.8044 56.5176 13.3512 11.8066 6.8851
LeftUpLeg  0.0909947 12.7979 2.7722
LeftLeg  47.2833 -0.281981 -0.275343
LeftFoot  35.2244 0.0343322 -0.108158
LeftToes  -34.3637 1.85109e-006 5.31342e-008
Spine  3.67379 -0.235962 6.1941
Spine1  7.47477 -0.530759 10.6926
RightShoulder  0.132583 0.720323 10.7117
RightArm  -29.8683 -3.19098 58.5825
RightForeArm  29.9656 37.1214 7.67062
RightHand  2.75752 -14.0468 -21.7288
LeftShoulder1  -0.00720942 7.22225 -2.59001
LeftArm  -56.5928 9.11619 -11.7174
LeftForeArm  50.4777 -48.0006 -11.2838
LeftHand  -1.57325 -17.3799 9.90025
HEad  -22.3786 15.4823 -5.39737
RightUpLeg  -40.4 0.496013 -19.1474
RightLeg  23.8095 16.7133 6.01916
RightFoot  19.8507 -1.02667 6.23962
RightToes  -43.643 -0.248219 -0.334762
507
root  11.5668 33.7727 57.6117 14.2064 3.77022 6.81906
LeftUpLeg  -1.5577 17.2732 1.92989
LeftLeg  55.2727 -3.19664 -4.03199
LeftFoot  29.5267 0.652163 -2.4744
LeftToes  -32.0098 1.85109e-006 5.31342e-008
Spine  4.18229 -2.45384 6.14286
Spine1  7.93096 -5.2287 11.3521
RightShoulder  0.107517 0.177003 10.8236
RightArm  -27.9003 0.215539 62.5967
RightForeArm  30.8673 38.6693 8.11474
RightHand  2.68751 -14.3717 -20.7
LeftShoulder1  0.016662 3.84166 3.15682
LeftArm  -53.3254 -14.3584 -0.842004
LeftForeArm  52.1185 -25.5895 -4.80724
LeftHand  -1.79399 -17.9918 10.9304
HEad  -18.0063 26.3059 -3.89849
RightUpLeg  -39.8042 -2.52958 -14.9269
RightLeg  19.8083 20.2167 5.71285
RightFoot  16.6041 -0.870561 6.338
RightToes  -36.6186 -0.19205 -0.295235
508
root  12.1766 33.6736 58.7204 15.2591 2.03363 9.29393
LeftUpLeg  -4.6637 17.5618 0.178402
LeftLeg  61.8376 1.86341 2.98569
LeftFoot  24.2157 -0.183076 0.85338
LeftToes  -33.9271 1.85109e-006 5.31342e-008
Spine  4.88003 -7.06947 6.03286
Spine1  6.22976 -16.206 13.3851
RightShoulder  0.104041 2.7906 6.86354
RightArm  -30.8745 -2.84159 68.2249
RightForeArm  31.6212 41.3605 8.93711
RightHand  3.02858 -14.0292 -23.8703
LeftShoulder1  0.148116 -4.93448 10.1882
LeftArm  -47.7155 -25.2595 -2.64755
LeftForeArm  47.1674 -31.1629 -6.09442
LeftHand  -1.27934 -16.963 8.19687
HEad  -17.5143 33.4883 -6.67126
RightUpLeg  -40.648 -5.17775 -16.7026
RightLeg  23.0667 21.6816 7.41377
RightFoot  12.4763 -0.522008 5.15007
RightToes  -43.2045 -0.244575 -0.332499
509
root  12.827 33.9885 60.0302 16.2007 0.320251 6.8837
LeftUpLeg  -7.71666 18.3627 3.27968
LeftLeg  64.3023 3.85285 6.79378
LeftFoot  17.6073 -0.222918 1.43927
LeftToes  -25.6556 1.85109e-006 5.31342e-008
Spine  4.95481 -9.17766 8.32951
Spine1  5.3872 -21.1389 18.3442
RightShoulder  0.102489 4.15888 3.35005
RightArm  -34.6986 -3.44832 68.9322
RightForeArm  31.5198 38.6258 8.10156
RightHand  3.2602 -14.0408 -25.6432
LeftShoulder1  0.179777 -4.48142 13.3187
LeftArm  -39.5151 -52.228 -17.3227
LeftForeArm  51.2829 -39.7444 -8.40378
LeftHand  -1.01044 -17.5024 6.18947
HEad  -26.3561 38.5052 -17.299
RightUpLeg  -42.6145 -11.5494 -10.1289
RightLeg  27.2982 19.5411 8.32343
RightFoot  11.6152 -0.369319 4.00721
RightToes  -34.9083 -0.179139 -0.284591
510
root  13.4165 34.1561 61.4548 17.8791 -8.13451 5.48494
LeftUpLeg  -10.102 23.5948 3.83171
LeftLeg  61.9198 2.18492 3.51256
LeftFoot  12.8128 0.00357799 -0.0318755
LeftToes  -27.7171 1.85109e-006 5.31342e-008
Spine  4.6993 -9.74046 8.09964
Spine1  5.41883 -22.1452 17.6765
RightShoulder  0.0940644 5.11056 4.04032
RightArm  -36.6239 -3.92566 68.3108
RightForeArm  32.2516 32.3387 6.4046
RightHand  3.05365 -13.4738 -25.0494
LeftShoulder1  0.164837 -6.95041 11.184
LeftArm  -1.0122 -66.9681 -63.4476
LeftForeArm  54.7163 -43.3503 -9.55212
LeftHand  -0.659314 -18.0136 3.78922
HEad  -34.117 46.0129 -26.945
RightUpLeg  -44.3668 -12.3762 -4.74967
RightLeg  26.217 17.4037 7.07643
RightFoot  10.6437 -0.244944 3.00639
RightToes  -28.1974 -0.131707 -0.239244
511
root  14.0683 34.0664 62.7952 17.9863 -19.1403 6.123
LeftUpLeg  -11.8704 28.3071 1.7942
LeftLeg  57.6957 0.992234 1.35638
LeftFoot  5.61128 0.0165598 -0.337916
LeftToes  -30.6342 1.85109e-006 5.31342e-008
Spine  4.83734 -9.59337 5.92385
Spine1  7.71564 -20.7032 12.1274
RightShoulder  0.0658412 4.6766 4.49315
RightArm  -37.0579 -3.51453 69.8556
RightForeArm  31.5271 26.8766 5.11977
RightHand  2.75857 -12.6581 -24.1139
LeftShoulder1  0.114528 -9.90658 4.5615
LeftArm  35.555 -56.2374 -99.9122
LeftForeArm  55.408 -49.2667 -11.7974
LeftHand  0.151004 -17.5 -1.35154
HEad  -46.429 51.2373 -38.412
RightUpLeg  -44.5493 -6.83567 -6.6617
RightLeg  25.5128 19.4426 7.59924
RightFoot  9.06156 -0.213137 3.06651
RightToes  -32.4133 -0.160888 -0.268384
512
root  14.7729 33.9754 64.2026 18.0746 -28.8359 4.69005
LeftUpLeg  -13.8328 29.077 2.20072
LeftLeg  52.648 3.09218 3.53855
LeftFoot  1.87511 0.00647722 -0.172782
LeftToes  -31.78 1.85109e-006 5.31342e-008
Spine  5.59081 -9.51085 4.45868
Spine1  10.1939 -20.0283 8.4446
RightShoulder  0.0731057 5.76869 4.37133
RightArm  -39.899 -3.32139 70.5334
RightForeArm  29.7159 23.4472 4.37925
RightHand  2.58591 -13.5271 -21.1702
LeftShoulder1  0.0921056 -7.32934 -2.37563
LeftArm  53.6651 -43.7448 -107.5
LeftForeArm  62.021 -57.9402 -16.3501
LeftHand  0.712123 -17.4334 -5.0141
HEad  -53.0362 50.9085 -43.5209
RightUpLeg  -45.7052 -5.97567 -5.02326
RightLeg  28.5956 23.671 10.5703
RightFoot  7.98354 -0.221495 3.5505
RightToes  -32.5859 -0.162128 -0.269531
513
root  15.3414 33.9247 65.6218 19.5057 -36.1012 1.6727
LeftUpLeg  -15.8347 26.4558 5.55296
LeftLeg  47.154 7.45052 7.00169
LeftFoot  1.23747 0.00250182 -0.0492844
LeftToes  -27.0825 1.85109e-006 5.31342e-008
Spine  6.05896 -8.54936 4.24577
Spine1  11.3564 -17.9596 7.91811
RightShoulder  0.0576306 6.09564 3.74762
RightArm  -40.8576 -5.51578 68.0807
RightForeArm  25.7994 23.3624 4.36311
RightHand  2.58845 -14.5233 -19.7298
LeftShoulder1  0.0866517 -8.04138 -4.25453
LeftArm  55.7758 -34.5367 -104.406
LeftForeArm  66.0888 -68.2762 -26.3661
LeftHand  1.02708 -16.0605 -7.64374
HEad  -48.1738 49.5484 -40.8585
RightUpLeg  -46.2607 -8.96145 0.274612
RightLeg  29.8012 22.7331 10.7343
RightFoot  7.61404 -0.192275 3.26612
RightToes  -28.606 -0.134441 -0.242162
